<?xml version="1.0" encoding="utf-8"?>
<!-- Generator: Adobe Illustrator 15.1.0, SVG Export Plug-In . SVG Version: 6.00 Build 0)  -->
<!DOCTYPE svg PUBLIC "-//W3C//DTD SVG 1.1//EN" "http://www.w3.org/Graphics/SVG/1.1/DTD/svg11.dtd">
<svg version="1.1" id="Layer_1" xmlns="http://www.w3.org/2000/svg" xmlns:xlink="http://www.w3.org/1999/xlink" x="0px" y="0px"
	 width="512px" height="512px" viewBox="0 0 512 512" enable-background="new 0 0 512 512" xml:space="preserve">
<g id="Grid_1_">
	<g id="Layer_1_1_">
		<g id="Grid">
			<g>
				<rect fill="none" stroke="#A9CCDB" stroke-miterlimit="10" width="512" height="512"/>
				<line fill="none" stroke="#A9CCDB" stroke-miterlimit="10" x1="0" y1="480" x2="512" y2="480"/>
				<line fill="none" stroke="#A9CCDB" stroke-miterlimit="10" x1="0" y1="448" x2="512" y2="448"/>
				<line fill="none" stroke="#A9CCDB" stroke-miterlimit="10" x1="0" y1="416" x2="512" y2="416"/>
				<line fill="none" stroke="#A9CCDB" stroke-miterlimit="10" x1="0" y1="384" x2="512" y2="384"/>
				<line fill="none" stroke="#A9CCDB" stroke-miterlimit="10" x1="0" y1="352" x2="512" y2="352"/>
				<line fill="none" stroke="#A9CCDB" stroke-miterlimit="10" x1="0" y1="320" x2="512" y2="320"/>
				<line fill="none" stroke="#A9CCDB" stroke-miterlimit="10" x1="0" y1="288" x2="512" y2="288"/>
				<line fill="none" stroke="#A9CCDB" stroke-miterlimit="10" x1="0" y1="256" x2="512" y2="256"/>
				<line fill="none" stroke="#A9CCDB" stroke-miterlimit="10" x1="0" y1="224" x2="512" y2="224"/>
				<line fill="none" stroke="#A9CCDB" stroke-miterlimit="10" x1="0" y1="192" x2="512" y2="192"/>
				<line fill="none" stroke="#A9CCDB" stroke-miterlimit="10" x1="0" y1="160" x2="512" y2="160"/>
				<line fill="none" stroke="#A9CCDB" stroke-miterlimit="10" x1="0" y1="128" x2="512" y2="128"/>
				<line fill="none" stroke="#A9CCDB" stroke-miterlimit="10" x1="0" y1="96" x2="512" y2="96"/>
				<line fill="none" stroke="#A9CCDB" stroke-miterlimit="10" x1="0" y1="64" x2="512" y2="64"/>
				<line fill="none" stroke="#A9CCDB" stroke-miterlimit="10" x1="0" y1="32" x2="512" y2="32"/>
				<line fill="none" stroke="#A9CCDB" stroke-miterlimit="10" x1="480" y1="0" x2="480" y2="512"/>
				<line fill="none" stroke="#A9CCDB" stroke-miterlimit="10" x1="448" y1="0" x2="448" y2="512"/>
				<line fill="none" stroke="#A9CCDB" stroke-miterlimit="10" x1="416" y1="0" x2="416" y2="512"/>
				<line fill="none" stroke="#A9CCDB" stroke-miterlimit="10" x1="384" y1="0" x2="384" y2="512"/>
				<line fill="none" stroke="#A9CCDB" stroke-miterlimit="10" x1="352" y1="0" x2="352" y2="512"/>
				<line fill="none" stroke="#A9CCDB" stroke-miterlimit="10" x1="320" y1="0" x2="320" y2="512"/>
				<line fill="none" stroke="#A9CCDB" stroke-miterlimit="10" x1="288" y1="0" x2="288" y2="512"/>
				<line fill="none" stroke="#A9CCDB" stroke-miterlimit="10" x1="256" y1="0" x2="256" y2="512"/>
				<line fill="none" stroke="#A9CCDB" stroke-miterlimit="10" x1="224" y1="0" x2="224" y2="512"/>
				<line fill="none" stroke="#A9CCDB" stroke-miterlimit="10" x1="192" y1="0" x2="192" y2="512"/>
				<line fill="none" stroke="#A9CCDB" stroke-miterlimit="10" x1="160" y1="0" x2="160" y2="512"/>
				<line fill="none" stroke="#A9CCDB" stroke-miterlimit="10" x1="128" y1="0" x2="128" y2="512"/>
				<line fill="none" stroke="#A9CCDB" stroke-miterlimit="10" x1="96" y1="0" x2="96" y2="512"/>
				<line fill="none" stroke="#A9CCDB" stroke-miterlimit="10" x1="64" y1="0" x2="64" y2="512"/>
				<line fill="none" stroke="#A9CCDB" stroke-miterlimit="10" x1="32" y1="0" x2="32" y2="512"/>
			</g>
		</g>
	</g>
</g>
<g>
	<g>
		<path fill="#1D1D1B" d="M326.042,347.688l-18-10.375c0.542-3.125,0.958-6.312,0.958-9.625c0-3.312-0.416-6.5-1-9.625
			l18.042-10.396c8.417-4.917,11.291-15.729,6.458-24.104c-4.876-8.479-15.667-11.375-24.125-6.5l-18.188,10.5
			c-4.877-4.146-10.375-7.396-16.5-9.604v-20.896c0-9.771-7.938-17.688-17.688-17.688s-17.666,7.917-17.666,17.688v20.875
			c-6.126,2.188-11.646,5.479-16.521,9.625l-18.146-10.5c-8.479-4.875-19.292-2-24.167,6.479c-4.875,8.417-1.938,19.25,6.5,24.126
			l17.959,10.375c-0.584,3.146-0.959,6.334-0.959,9.646s0.375,6.5,0.959,9.623L186,347.688c-8.459,4.875-11.375,15.75-6.5,24.188
			s15.688,11.312,24.125,6.438l18.167-10.438c4.874,4.125,10.396,7.375,16.542,9.562v20.938c0,9.749,7.916,17.624,17.666,17.624
			s17.688-7.875,17.688-17.624v-20.938c6.125-2.188,11.688-5.438,16.521-9.625l18.167,10.5c8.458,4.875,19.249,2,24.125-6.438
			C337.375,363.438,334.5,352.625,326.042,347.688z M256,345.375c-9.75,0-17.688-7.938-17.688-17.688s7.938-17.646,17.688-17.646
			s17.667,7.896,17.667,17.646S265.75,345.375,256,345.375z M400,64c-5.312,0-10.562,0.375-15.792,1.125
			C354.334,24.417,307.188,0,256,0c-51.188,0-98.312,24.417-128.208,65.125C122.562,64.375,117.312,64,112,64
			C50.25,64,0,114.25,0,176s50.25,112,112,112c11.812,0,23.334-2.208,34.438-5.834c1.062-5.082,2.729-10.041,5.375-14.645
			c3.938-6.854,9.562-12.312,16-16.502c-3.312-3.229-6.938-6.104-9.875-9.688C144.938,250.5,129.125,256,112,256
			c-44.188,0-80-35.812-80-80c0-44.188,35.812-80,80-80c10.812,0,21.062,2.208,30.438,6.083C163.667,60.667,206.291,32,256,32
			s92.334,28.667,113.541,70.083C378.938,98.208,389.209,96,400,96c44.188,0,80,35.812,80,80c0,44.188-35.812,80-80,80
			c-17.125,0-32.916-5.5-45.938-14.667c-2.938,3.583-6.604,6.459-9.896,9.688c6.459,4.207,12.125,9.688,16.042,16.562
			c2.708,4.646,4.354,9.584,5.416,14.583C376.688,285.792,388.188,288,400,288c61.75,0,112-50.25,112-112S461.75,64,400,64z"/>
	</g>
</g>
</svg>
