<?xml version="1.0" encoding="utf-8"?>
<!-- Generator: Adobe Illustrator 15.1.0, SVG Export Plug-In . SVG Version: 6.00 Build 0)  -->
<!DOCTYPE svg PUBLIC "-//W3C//DTD SVG 1.1//EN" "http://www.w3.org/Graphics/SVG/1.1/DTD/svg11.dtd">
<svg version="1.1" id="Layer_1" xmlns="http://www.w3.org/2000/svg" xmlns:xlink="http://www.w3.org/1999/xlink" x="0px" y="0px"
	 width="512px" height="512px" viewBox="0 0 512 512" enable-background="new 0 0 512 512" xml:space="preserve">
<g id="Grid_1_">
	<g id="Layer_1_1_">
		<g id="Grid">
			<g>
				<rect fill="none" stroke="#A9CCDB" stroke-miterlimit="10" width="512" height="512"/>
				<line fill="none" stroke="#A9CCDB" stroke-miterlimit="10" x1="0" y1="480" x2="512" y2="480"/>
				<line fill="none" stroke="#A9CCDB" stroke-miterlimit="10" x1="0" y1="448" x2="512" y2="448"/>
				<line fill="none" stroke="#A9CCDB" stroke-miterlimit="10" x1="0" y1="416" x2="512" y2="416"/>
				<line fill="none" stroke="#A9CCDB" stroke-miterlimit="10" x1="0" y1="384" x2="512" y2="384"/>
				<line fill="none" stroke="#A9CCDB" stroke-miterlimit="10" x1="0" y1="352" x2="512" y2="352"/>
				<line fill="none" stroke="#A9CCDB" stroke-miterlimit="10" x1="0" y1="320" x2="512" y2="320"/>
				<line fill="none" stroke="#A9CCDB" stroke-miterlimit="10" x1="0" y1="288" x2="512" y2="288"/>
				<line fill="none" stroke="#A9CCDB" stroke-miterlimit="10" x1="0" y1="256" x2="512" y2="256"/>
				<line fill="none" stroke="#A9CCDB" stroke-miterlimit="10" x1="0" y1="224" x2="512" y2="224"/>
				<line fill="none" stroke="#A9CCDB" stroke-miterlimit="10" x1="0" y1="192" x2="512" y2="192"/>
				<line fill="none" stroke="#A9CCDB" stroke-miterlimit="10" x1="0" y1="160" x2="512" y2="160"/>
				<line fill="none" stroke="#A9CCDB" stroke-miterlimit="10" x1="0" y1="128" x2="512" y2="128"/>
				<line fill="none" stroke="#A9CCDB" stroke-miterlimit="10" x1="0" y1="96" x2="512" y2="96"/>
				<line fill="none" stroke="#A9CCDB" stroke-miterlimit="10" x1="0" y1="64" x2="512" y2="64"/>
				<line fill="none" stroke="#A9CCDB" stroke-miterlimit="10" x1="0" y1="32" x2="512" y2="32"/>
				<line fill="none" stroke="#A9CCDB" stroke-miterlimit="10" x1="480" y1="0" x2="480" y2="512"/>
				<line fill="none" stroke="#A9CCDB" stroke-miterlimit="10" x1="448" y1="0" x2="448" y2="512"/>
				<line fill="none" stroke="#A9CCDB" stroke-miterlimit="10" x1="416" y1="0" x2="416" y2="512"/>
				<line fill="none" stroke="#A9CCDB" stroke-miterlimit="10" x1="384" y1="0" x2="384" y2="512"/>
				<line fill="none" stroke="#A9CCDB" stroke-miterlimit="10" x1="352" y1="0" x2="352" y2="512"/>
				<line fill="none" stroke="#A9CCDB" stroke-miterlimit="10" x1="320" y1="0" x2="320" y2="512"/>
				<line fill="none" stroke="#A9CCDB" stroke-miterlimit="10" x1="288" y1="0" x2="288" y2="512"/>
				<line fill="none" stroke="#A9CCDB" stroke-miterlimit="10" x1="256" y1="0" x2="256" y2="512"/>
				<line fill="none" stroke="#A9CCDB" stroke-miterlimit="10" x1="224" y1="0" x2="224" y2="512"/>
				<line fill="none" stroke="#A9CCDB" stroke-miterlimit="10" x1="192" y1="0" x2="192" y2="512"/>
				<line fill="none" stroke="#A9CCDB" stroke-miterlimit="10" x1="160" y1="0" x2="160" y2="512"/>
				<line fill="none" stroke="#A9CCDB" stroke-miterlimit="10" x1="128" y1="0" x2="128" y2="512"/>
				<line fill="none" stroke="#A9CCDB" stroke-miterlimit="10" x1="96" y1="0" x2="96" y2="512"/>
				<line fill="none" stroke="#A9CCDB" stroke-miterlimit="10" x1="64" y1="0" x2="64" y2="512"/>
				<line fill="none" stroke="#A9CCDB" stroke-miterlimit="10" x1="32" y1="0" x2="32" y2="512"/>
			</g>
		</g>
	</g>
</g>
<g>
	<g>
		<path fill-rule="evenodd" clip-rule="evenodd" fill="#1D1D1B" d="M326.042,443.688l-18-10.376
			c0.542-3.124,0.958-6.311,0.958-9.624c0-3.312-0.416-6.5-1-9.625l18.042-10.396c8.417-4.917,11.291-15.729,6.458-24.104
			c-4.876-8.479-15.667-11.375-24.125-6.5l-18.188,10.5c-4.876-4.146-10.375-7.396-16.5-9.604v-20.896
			c0-9.771-7.938-17.688-17.688-17.688s-17.666,7.917-17.666,17.688v20.875c-6.126,2.188-11.646,5.479-16.521,9.625l-18.146-10.5
			c-8.479-4.875-19.292-2-24.167,6.479c-4.875,8.417-1.938,19.25,6.5,24.126l17.959,10.375c-0.584,3.146-0.959,6.334-0.959,9.646
			c0,3.313,0.375,6.5,0.959,9.624L186,443.688c-8.459,4.875-11.375,15.75-6.5,24.188s15.688,11.312,24.125,6.438l18.167-10.438
			c4.874,4.125,10.396,7.375,16.542,9.562v20.938c0,9.749,7.916,17.624,17.666,17.624s17.688-7.875,17.688-17.624v-20.938
			c6.125-2.188,11.688-5.438,16.521-9.625l18.167,10.5c8.458,4.875,19.249,2,24.125-6.438
			C337.375,459.438,334.5,448.625,326.042,443.688z M256,441.375c-9.75,0-17.688-7.938-17.688-17.688s7.938-17.646,17.688-17.646
			s17.667,7.896,17.667,17.646S265.75,441.375,256,441.375z M474.166,396.25l-12.083-3.208c-0.291-3.833-1.208-7.479-2.896-10.979
			l8.771-8.771c4.125-4.125,4.104-10.792,0-14.854c-4.083-4.104-10.708-4.125-14.833,0l-8.791,8.75
			c-3.459-1.625-7.146-2.562-10.959-2.875l-3.209-12.062c-1.499-5.583-7.25-8.938-12.874-7.438
			c-5.604,1.521-8.875,7.271-7.417,12.875l3.209,11.896c-1.584,1.084-3.084,2.292-4.5,3.667c-1.375,1.417-2.542,2.916-3.626,4.459
			l-11.896-3.209c-5.604-1.499-11.396,1.876-12.896,7.438c-1.499,5.625,1.876,11.354,7.417,12.875l12,3.229
			c0.334,3.771,1.292,7.458,2.979,10.959l-8.812,8.812c-4.083,4.104-4.062,10.729,0.042,14.812
			c4.083,4.083,10.708,4.125,14.792,0.042l8.832-8.833c3.459,1.707,7.168,2.666,11.001,2.957l3.166,12.021
			c1.542,5.604,7.25,8.938,12.876,7.438c5.583-1.5,8.957-7.249,7.458-12.917l-3.209-11.896c1.5-1.062,3.042-2.25,4.459-3.625
			c1.375-1.396,2.542-2.938,3.624-4.479l11.917,3.209c5.604,1.5,11.375-1.854,12.854-7.417
			C483.062,403.541,479.75,397.792,474.166,396.25z M438.312,402.938c-4.125,4.125-10.771,4.104-14.875,0
			c-4.062-4.062-4.104-10.729,0-14.854c4.104-4.083,10.771-4.083,14.875,0C442.375,392.188,442.375,398.875,438.312,402.938z
			 M118.938,342.5l-11.875,3.188c-1.104-1.5-2.25-3.021-3.646-4.438c-1.416-1.375-2.916-2.562-4.479-3.625l3.188-11.938
			c1.5-5.604-1.834-11.375-7.375-12.854c-5.625-1.5-11.375,1.834-12.875,7.417l-3.25,12.062c-3.812,0.312-7.458,1.25-10.938,2.896
			l-8.812-8.771c-4.125-4.125-10.75-4.104-14.834,0c-4.104,4.104-4.104,10.75,0,14.854l8.771,8.771
			c-1.646,3.5-2.604,7.188-2.896,10.979l-12.042,3.208c-5.625,1.542-8.959,7.25-7.458,12.875c1.521,5.583,7.271,8.875,12.896,7.417
			l11.875-3.23c1.062,1.604,2.25,3.105,3.688,4.501c1.375,1.375,2.875,2.604,4.438,3.625l-3.188,11.896
			c-1.5,5.625,1.834,11.417,7.416,12.917c5.626,1.5,11.334-1.833,12.834-7.438l3.25-12c3.812-0.312,7.5-1.271,11-2.938l8.791,8.792
			c4.084,4.124,10.709,4.041,14.834-0.042c4.062-4.062,4.125-10.708,0-14.812l-8.812-8.812c1.688-3.46,2.688-7.188,2.938-11.001
			l12.062-3.188c5.562-1.521,8.896-7.25,7.396-12.875C130.334,344.376,124.584,341.042,118.938,342.5z M88.562,370.958
			c-4.104,4.104-10.75,4.104-14.875,0c-4.062-4.083-4.062-10.771,0-14.833c4.125-4.083,10.771-4.083,14.875,0
			S92.625,366.875,88.562,370.958z M512,176c0-61.75-50.25-112-112-112c-5.312,0-10.562,0.375-15.792,1.125
			C354.334,24.417,307.188,0,256,0s-98.312,24.417-128.208,65.125C122.562,64.375,117.312,64,112,64C50.25,64,0,114.25,0,176
			s50.25,112,112,112c13.688,0,27.084-2.5,39.709-7.333C180.666,305.917,217.5,320,256,320c38.542,0,75.333-14.083,104.291-39.333
			C372.916,285.5,386.312,288,400,288C461.75,288,512,237.75,512,176z"/>
	</g>
</g>
</svg>
