<?xml version="1.0" encoding="utf-8"?>
<!-- Generator: Adobe Illustrator 15.1.0, SVG Export Plug-In . SVG Version: 6.00 Build 0)  -->
<!DOCTYPE svg PUBLIC "-//W3C//DTD SVG 1.1//EN" "http://www.w3.org/Graphics/SVG/1.1/DTD/svg11.dtd">
<svg version="1.1" id="Layer_1" xmlns="http://www.w3.org/2000/svg" xmlns:xlink="http://www.w3.org/1999/xlink" x="0px" y="0px"
	 width="512px" height="512px" viewBox="0 0 512 512" enable-background="new 0 0 512 512" xml:space="preserve">
<g id="Grid_1_">
	<g id="Layer_1_1_">
		<g id="Grid">
			<g>
				<rect fill="none" stroke="#A9CCDB" stroke-miterlimit="10" width="512" height="512"/>
				<line fill="none" stroke="#A9CCDB" stroke-miterlimit="10" x1="0" y1="480" x2="512" y2="480"/>
				<line fill="none" stroke="#A9CCDB" stroke-miterlimit="10" x1="0" y1="448" x2="512" y2="448"/>
				<line fill="none" stroke="#A9CCDB" stroke-miterlimit="10" x1="0" y1="416" x2="512" y2="416"/>
				<line fill="none" stroke="#A9CCDB" stroke-miterlimit="10" x1="0" y1="384" x2="512" y2="384"/>
				<line fill="none" stroke="#A9CCDB" stroke-miterlimit="10" x1="0" y1="352" x2="512" y2="352"/>
				<line fill="none" stroke="#A9CCDB" stroke-miterlimit="10" x1="0" y1="320" x2="512" y2="320"/>
				<line fill="none" stroke="#A9CCDB" stroke-miterlimit="10" x1="0" y1="288" x2="512" y2="288"/>
				<line fill="none" stroke="#A9CCDB" stroke-miterlimit="10" x1="0" y1="256" x2="512" y2="256"/>
				<line fill="none" stroke="#A9CCDB" stroke-miterlimit="10" x1="0" y1="224" x2="512" y2="224"/>
				<line fill="none" stroke="#A9CCDB" stroke-miterlimit="10" x1="0" y1="192" x2="512" y2="192"/>
				<line fill="none" stroke="#A9CCDB" stroke-miterlimit="10" x1="0" y1="160" x2="512" y2="160"/>
				<line fill="none" stroke="#A9CCDB" stroke-miterlimit="10" x1="0" y1="128" x2="512" y2="128"/>
				<line fill="none" stroke="#A9CCDB" stroke-miterlimit="10" x1="0" y1="96" x2="512" y2="96"/>
				<line fill="none" stroke="#A9CCDB" stroke-miterlimit="10" x1="0" y1="64" x2="512" y2="64"/>
				<line fill="none" stroke="#A9CCDB" stroke-miterlimit="10" x1="0" y1="32" x2="512" y2="32"/>
				<line fill="none" stroke="#A9CCDB" stroke-miterlimit="10" x1="480" y1="0" x2="480" y2="512"/>
				<line fill="none" stroke="#A9CCDB" stroke-miterlimit="10" x1="448" y1="0" x2="448" y2="512"/>
				<line fill="none" stroke="#A9CCDB" stroke-miterlimit="10" x1="416" y1="0" x2="416" y2="512"/>
				<line fill="none" stroke="#A9CCDB" stroke-miterlimit="10" x1="384" y1="0" x2="384" y2="512"/>
				<line fill="none" stroke="#A9CCDB" stroke-miterlimit="10" x1="352" y1="0" x2="352" y2="512"/>
				<line fill="none" stroke="#A9CCDB" stroke-miterlimit="10" x1="320" y1="0" x2="320" y2="512"/>
				<line fill="none" stroke="#A9CCDB" stroke-miterlimit="10" x1="288" y1="0" x2="288" y2="512"/>
				<line fill="none" stroke="#A9CCDB" stroke-miterlimit="10" x1="256" y1="0" x2="256" y2="512"/>
				<line fill="none" stroke="#A9CCDB" stroke-miterlimit="10" x1="224" y1="0" x2="224" y2="512"/>
				<line fill="none" stroke="#A9CCDB" stroke-miterlimit="10" x1="192" y1="0" x2="192" y2="512"/>
				<line fill="none" stroke="#A9CCDB" stroke-miterlimit="10" x1="160" y1="0" x2="160" y2="512"/>
				<line fill="none" stroke="#A9CCDB" stroke-miterlimit="10" x1="128" y1="0" x2="128" y2="512"/>
				<line fill="none" stroke="#A9CCDB" stroke-miterlimit="10" x1="96" y1="0" x2="96" y2="512"/>
				<line fill="none" stroke="#A9CCDB" stroke-miterlimit="10" x1="64" y1="0" x2="64" y2="512"/>
				<line fill="none" stroke="#A9CCDB" stroke-miterlimit="10" x1="32" y1="0" x2="32" y2="512"/>
			</g>
		</g>
	</g>
</g>
<g>
	<g>
		<path fill="#1D1D1B" d="M209.167,176.375c-3.604-3.396-7.792-6.083-12.542-8.062c-4.812-1.938-9.938-2.938-15.375-2.938
			c-5.458,0-10.584,1-15.375,2.938c-4.75,1.979-8.938,4.667-12.541,8.062c-3.584,3.417-6.396,7.417-8.459,12.042
			c-2.042,4.605-3.062,9.479-3.062,14.583c0,5.125,1.021,10,3.062,14.605c2.062,4.604,4.875,8.625,8.459,12.02
			c3.604,3.417,7.791,6.125,12.541,8.063c4.791,1.979,9.917,2.958,15.375,2.958c5.438,0,10.562-0.979,15.375-2.958
			c4.75-1.938,8.938-4.646,12.542-8.063c3.583-3.395,6.396-7.417,8.416-12.02c2.042-4.605,3.104-9.479,3.104-14.605
			c0-5.104-1.062-9.979-3.104-14.583C215.562,183.791,212.75,179.791,209.167,176.375z M193.812,215.041
			c-3.438,3.417-7.625,5.125-12.562,5.125s-9.125-1.709-12.562-5.125c-3.396-3.417-5.125-7.417-5.125-12.042
			c0-4.75,1.729-8.833,5.125-12.145c3.438-3.333,7.625-4.979,12.562-4.979s9.125,1.646,12.562,4.979
			c3.375,3.312,5.104,7.395,5.104,12.145C198.916,207.625,197.188,211.625,193.812,215.041z M335.25,311.791
			c-6.062,1.73-12.083,2.583-18.062,2.583c-3.938,0-7.812-0.604-11.646-1.79c-3.854-1.209-7.354-3.084-10.499-5.646
			c-3.167-2.563-5.73-5.834-7.667-9.854c-1.959-4-2.958-8.917-2.958-14.709v-51.458c0-5.792,0.999-10.75,2.958-14.854
			c1.937-4.083,4.459-7.417,7.541-9.979c3.084-2.562,6.542-4.396,10.5-5.5c3.917-1.105,7.834-1.667,11.771-1.667
			c5.979,0,12.124,0.875,18.437,2.688c6.313,1.791,12.188,4.999,17.668,9.604l16.896-27.146
			c-6.854-5.958-14.979-10.312-24.479-13.062c-9.459-2.708-19.292-4.083-29.543-4.083c-8.354,0-16.583,1.208-24.583,3.584
			c-8.021,2.396-15.146,5.979-21.375,10.75c-6.208,4.792-11.271,10.708-15.083,17.791c-3.875,7.084-5.791,15.333-5.791,24.708
			v66.042c0,9.562,1.979,17.875,5.916,24.959c3.917,7.084,9.041,12.979,15.334,17.666c6.332,4.708,13.479,8.229,21.499,10.625
			c8.042,2.375,16.229,3.584,24.604,3.584c10.396,0,20.271-1.542,29.688-4.604c9.375-3.083,17.312-7.354,23.812-12.792
			l-16.646-27.146C347.416,306.875,341.292,310.104,335.25,311.791z"/>
	</g>
</g>
</svg>
